<?xml version="1.0" encoding="utf-8"?>
<!-- Generator: Adobe Illustrator 25.2.0, SVG Export Plug-In . SVG Version: 6.00 Build 0)  -->
<svg version="1.1" id="Layer_1" xmlns="http://www.w3.org/2000/svg" xmlns:xlink="http://www.w3.org/1999/xlink" x="0px" y="0px"
	 viewBox="0 0 512 512" style="enable-background:new 0 0 512 512;" xml:space="preserve">
<style type="text/css">
	.st0{fill-rule:evenodd;clip-rule:evenodd;fill:#33585C;}
	.st1{fill-rule:evenodd;clip-rule:evenodd;fill:#901D77;}
	.st2{fill:#8F1E78;}
	.st3{fill:#31585C;}
	.st4{enable-background:new    ;}
	.st5{fill:#901D77;}
	.st6{fill:#33585C;}
</style>
<g>
	<path class="st0" d="M319.4,0.5c0,0-92.6,75.4-109.8,188.9c0,0-30.7,147.8,81.6,66.2c0,0-51.5,66.2-93.2,50.3
		c0,0-28.8-9.6-8.6-105.4C189.3,200.6,226.8,61.8,319.4,0.5z"/>
	<path class="st1" d="M234.1,184.6c0,0,102.8-9.7,108.9-53.4c0.2-1.6,0.3-3.2,0.3-4.9c-1.2-47.8-69.3-60.1-69.3-60.1
		S222.4,54,166.6,63.5c0,0,117.6-30,181,16.7s-28.6,90.8-28.6,90.8S286.2,187.7,234.1,184.6z"/>
</g>
<g>
	<path class="st2" d="M159.9,353.1c-0.5,5.3-2.2,10-5.1,13.9c-2.9,4-6.6,7.1-11.1,9.2c-8.6,4.3-18.6,6.5-29.9,6.5
		c-2,0-3.9-0.1-5.6-0.4c-6.7,16.9-10,28.3-10,34.2c0,1.2,0.2,2.1,0.5,2.7H83.1c2.3-9.7,7-23.3,14.2-40.6c9.7-23,15.9-36.1,18.7-39.2
		c-6.8,0.2-13.8,1.6-20.8,4.2c-7,2.6-11.1,5.7-12.3,9.4c-0.1,0.2-0.2,0.4-0.5,0.4c-0.7,0-1.1-0.5-1.1-1.6c0-0.2,0.1-0.6,0.2-1.2
		c1.5-4.4,3.7-7.8,6.6-10.3c2.9-2.4,5.7-3.9,8.5-4.5c2.8-0.6,6.2-0.8,10.3-0.8h30.5c7.3,0,12.9,1.6,16.6,4.7
		c3.7,3.1,5.6,7.1,5.6,11.8V353.1z M127.7,377.5c5.8-2,10.5-5.1,14.2-9.2c3.7-4.1,5.6-9.1,5.6-14.8c0-9.2-5.6-14.1-16.7-14.9
		c-5.3,6.6-11.8,18.6-19.3,36l-2.5,5.9h1.4C116.2,380.5,121.9,379.5,127.7,377.5z"/>
	<path class="st2" d="M191.4,371l6,0.1h1.2c-2.7,2.2-5.9,7.7-9.8,16.5c-3.9,8.8-5.8,15.2-5.8,19.3c0,2.1,0.7,3.1,2.2,3.1
		c4.7,0,10.6-6.9,17.9-20.6c0.3-0.6,0.6-0.8,0.8-0.8c0.5,0,0.7,0.7,0.7,2.2c0,1.5-0.4,2.9-1.2,4.3c-9.9,16.7-18.2,25-24.9,25
		c-4.3,0-6.5-3.3-6.5-10c0-5,0.8-9.9,2.5-14.7c-9.2,16.3-17.7,24.4-25.5,24.4c-5.4,0-8.1-3.7-8.1-11.1c0-5.6,1.2-11.3,3.7-17.1
		c2.5-5.8,6-10.7,10.6-14.8c4.6-4.1,9.6-6.1,15.1-6.1c2.6,0,5,0.6,7.2,1.8c2.3,1.2,3.7,3,4.5,5.6c0.9-1.9,2.3-3.5,4.1-4.8
		C188,371.7,189.8,371,191.4,371z M181.4,379c-0.8-2.6-2.7-3.9-5.7-3.9c-5.3,0-10.5,3.7-15.5,11c-5,7.4-7.5,13.9-7.5,19.7
		c0,2.5,1,3.7,2.9,3.7c2.1,0,4.5-1.3,7.4-3.9c2.8-2.6,5.4-5.7,7.6-9.2C175.6,388.6,179.2,382.7,181.4,379z"/>
	<path class="st2" d="M247.9,372.2h5c-2.5,1.5-5,5.3-7.6,11.3c-2.1,5.1-3.9,9.7-5.3,13.8c-1.4,4.1-2.3,6.7-2.7,7.5
		c-0.3,0.9-1.1,3-2.2,6.5c-1.2,3.4-2.1,6.1-2.8,7.9c-2,5.6-4.3,10.1-7,13.4c-2.7,3.3-6,5.9-9.9,7.9c-3.9,2-7.9,3-12,3
		c-4,0-7.5-0.8-10.3-2.4c-2.9-1.6-4.3-4-4.3-7.4c0-1.8,0.5-3.4,1.6-4.8c1.1-1.4,2.3-2.1,3.7-2.1s2.6,0.3,3.6,1
		c1,0.6,1.6,1.4,2.1,2.2c-1.4,0.5-2.2,2.2-2.2,5.1c0,1.5,0.5,2.8,1.6,3.7c1.1,0.9,2.5,1.4,4.2,1.4c6.5,0,12-5.8,16.4-17.5l6.9-18.4
		c-3.8,4.8-7.1,8.3-9.8,10.7c-2.8,2.4-5,3.8-6.5,4.3s-3.4,0.7-5.6,0.7c-2.1,0-3.8-0.9-5.1-2.6c-1.3-1.7-1.9-4.3-1.9-7.6
		c0-3.3,1-8.1,2.9-14.3c1.9-6.2,4-11.1,6.3-14.7s4.7-6,7.1-7c2.5-1,5.8-1.6,10.1-1.6c0.3,0,0.5,0.2,0.5,0.5c0,0.3-0.2,0.7-0.7,1.2
		c-3.3,2.9-6.7,8.1-10.1,15.6c-3.4,7.5-5.1,13.8-5.1,19c0,2.7,0.8,4.1,2.3,4.1c2.9,0,6.6-2.9,11.1-8.7c4.5-5.8,8-11.6,10.4-17.4
		c0.3-0.8,0.8-2,1.4-3.5c0.6-1.5,1-2.6,1.3-3.1c0.2-0.6,0.6-1.3,1.1-2.4c0.5-1,1-1.7,1.4-2.1c0.4-0.4,0.9-0.8,1.6-1.4
		c0.7-0.6,1.4-0.9,2.1-1.1C243.7,372.4,245.9,372.2,247.9,372.2z"/>
	<path class="st3" d="M326.2,353.1c-0.5,5.3-2.2,10-5.1,13.9c-2.9,4-6.6,7.1-11.1,9.2c-8.6,4.3-18.6,6.5-29.9,6.5
		c-2,0-3.9-0.1-5.6-0.4c-6.7,16.9-10,28.3-10,34.2c0,1.2,0.2,2.1,0.5,2.7h-15.6c2.3-9.7,7-23.3,14.2-40.6
		c9.7-23,15.9-36.1,18.7-39.2c-6.8,0.2-13.8,1.6-20.8,4.2c-7,2.6-11.1,5.7-12.3,9.4c-0.1,0.2-0.2,0.4-0.5,0.4
		c-0.7,0-1.1-0.5-1.1-1.6c0-0.2,0.1-0.6,0.2-1.2c1.5-4.4,3.7-7.8,6.6-10.3c2.9-2.4,5.7-3.9,8.5-4.5c2.8-0.6,6.2-0.8,10.3-0.8H304
		c7.3,0,12.9,1.6,16.6,4.7c3.7,3.1,5.6,7.1,5.6,11.8V353.1z M294.1,377.5c5.8-2,10.5-5.1,14.2-9.2c3.7-4.1,5.6-9.1,5.6-14.8
		c0-9.2-5.6-14.1-16.7-14.9c-5.3,6.6-11.8,18.6-19.3,36l-2.5,5.9h1.4C282.5,380.5,288.3,379.5,294.1,377.5z"/>
	<path class="st3" d="M350.4,370.7l6.2,0.1h1.2c-1.2,0.9-2.9,3.5-5.1,7.8c-2.2,4.3-3.9,7.6-5,9.8c-1.1,2.2-2.3,5.2-3.6,8.9
		s-2,6.8-2,9.1c0,2.3,0.8,3.5,2.4,3.5c1-0.1,2.5-0.8,4.4-2.2c1.9-1.4,3.5-2.9,4.7-4.5c1.2-1.6,2.6-3.6,4.1-6
		c1.5-2.5,2.8-4.6,3.9-6.4c1.1-1.8,1.7-2.7,1.9-2.7c0.6,0,0.8,0.7,0.8,2.2c0,1.5-0.4,2.9-1.2,4.3c-3.5,5.7-6.3,10.1-8.6,13.2
		c-2.3,3.1-5,5.9-8.1,8.4c-3.2,2.5-6.1,3.8-8.6,3.8c-4.6,0-6.9-3.4-6.9-10.1c0-4.6,0.9-9.8,2.7-15.6c1.8-5.8,4.4-11.4,7.8-16.8
		c-2.8,2.3-5.6,3.4-8.5,3.4c-0.9,0-1.8-0.2-2.8-0.6c-5.7,11.3-8.8,16.9-9.2,16.9c-0.4,0-0.7-0.7-0.7-2s0.5-3.2,1.5-5.6
		c1-2.4,2.1-4.6,3.3-6.8c1.2-2.2,1.8-3.4,1.9-3.6c-2.9-1.4-4.3-3.8-4.3-7c0-1.6,0.5-3.1,1.5-4.3c1-1.3,2.4-1.9,4.2-1.9
		c1.8,0,3.2,0.6,4.3,1.7c-0.2,0.5-0.2,1.2-0.2,2.2c0,2.2,0.8,3.9,2.4,5.1c1.6,1.2,3.5,1.9,5.7,1.9c0.6,0,1.1,0,1.4-0.1
		C344.6,372.8,347.5,370.7,350.4,370.7z"/>
	<path class="st3" d="M406.9,387.9c0.5,0,0.7,0.8,0.7,2.4s-0.6,3.4-1.9,5.6c-1.3,2.2-2.6,4.2-3.8,6.2c-1.2,1.9-2.9,4.2-5,6.8
		c-2.1,2.6-4.1,4.6-6.2,6.2c-5.1,3.7-10.2,5.6-15.3,5.6c-5.1,0-9.2-1.3-12.4-3.9c-3.1-2.6-4.7-6.6-4.7-12c0-8.2,3-15.8,9.1-22.8
		s13.1-10.5,21.1-10.5c3.6,0,6.5,0.9,8.7,2.8c2.2,1.9,3.3,4.2,3.3,6.8c0,4.5-2.1,8.1-6.4,10.9c-4.3,2.7-9.3,4.1-15.1,4.1
		c-3.4,0-5.9-0.4-7.5-1.3c-1.5,4.1-2.3,7.7-2.3,10.9c0,6.8,2.9,10.1,8.6,10.1c3.4,0,6.9-1.3,10.4-3.9c3.6-2.6,6.6-5.6,9.2-8.8
		s5.4-7.9,8.6-14.1C406.4,388.2,406.7,387.9,406.9,387.9z M394.1,378.3c0-2.3-1.1-3.5-3.4-3.5c-3.1,0-6.6,1.9-10.5,5.8
		c-3.9,3.9-5.8,7-5.8,9.4c0,1.6,1.5,2.4,4.6,2.4c3.1,0,6.3-1.5,9.6-4.5C391.9,385,393.8,381.8,394.1,378.3z"/>
</g>
<g>
	<g>
		<g class="st4">
			<path class="st5" d="M117.1,498.7c0,3.2-0.9,5.7-2.8,7.4s-4.4,2.6-7.7,2.6h-4.9c-4.1,0-6.9-0.7-8.6-2c-1.7-1.3-2.5-3.7-2.5-7
				v-25.9H106c3.5,0,6.1,0.8,7.9,2.5c1.8,1.7,2.7,4,2.7,7.1c0,1.8-0.5,3.3-1.4,4.5s-2,2.1-3.1,2.6
				C115.4,492.1,117.1,494.8,117.1,498.7z M105.4,487.5c2.6,0,4-1.3,4-3.8c0-2.5-1.3-3.8-4-3.8h-7.8v7.5H105.4z M109.9,498.4
				c0-1.6-0.3-2.8-0.9-3.6c-0.6-0.8-1.6-1.2-3.1-1.2h-8.2v5.5c0,1.3,0.4,2.3,1.1,2.8c0.7,0.5,1.9,0.8,3.5,0.8h3.7
				C108.6,502.7,109.9,501.2,109.9,498.4z"/>
			<path class="st5" d="M163.9,489.7v2.6c0,5.8-1.2,10.1-3.5,12.7c-2.3,2.6-6,4-11.2,4c-5.1,0-8.8-1.3-11.1-4
				c-2.3-2.6-3.4-6.9-3.4-12.9v-2.5c0-5.4,1.2-9.5,3.5-12.1c2.3-2.6,6-4,11-4c5,0,8.7,1.3,11.1,4S163.9,484.3,163.9,489.7z
				 M156.7,492.2v-1.8c0-3.1-0.4-5.6-1.2-7.5c-1-2.2-3-3.2-6.2-3.2c-3.2,0-5.3,1.1-6.2,3.2c-0.8,1.8-1.2,4.3-1.2,7.5v1.8
				c0,4.2,0.6,7.1,1.9,8.5c0.5,0.6,1.2,1.2,2.1,1.6c0.9,0.4,2.1,0.7,3.4,0.7c1.3,0,2.4-0.2,3.4-0.6c0.9-0.4,1.6-0.9,2.2-1.6
				c0.5-0.6,0.9-1.4,1.2-2.4C156.5,496.7,156.7,494.7,156.7,492.2z"/>
			<path class="st5" d="M210.6,508.7h-7.5l-2.1-6h-12.3l-2,6h-7.5l11.7-31.9c0.5-1.1,1.1-1.9,1.7-2.3c0.6-0.4,1.4-0.6,2.3-0.6
				c0.9,0,1.7,0.2,2.2,0.6c0.6,0.4,1.1,1.2,1.5,2.4L210.6,508.7z M199.4,497l-4.3-13.8l-4.5,13.8H199.4z"/>
			<path class="st5" d="M252.1,479.9h-9.8v28.8h-7.2v-28.8h-9.8v-6.1h26.8V479.9z"/>
			<path class="st5" d="M277.5,508.7h-7.2v-34.9h7.2V508.7z"/>
			<path class="st5" d="M327.2,473.9v31.3c0,1.1-0.3,2-1,2.8c-0.7,0.8-1.5,1.2-2.4,1.2c-2.4,0-4.3-1.3-5.8-3.9l-12.7-18.9v22.4h-7.2
				v-34.9h6.9l15,22.8v-22.8H327.2z"/>
			<path class="st5" d="M345,492.3V488c0-4.5,1.3-8.1,3.8-10.6s6-3.8,10.4-3.8s8,1.3,10.7,3.8c1.9,1.8,2.8,4.5,2.8,8.1h-6.7
				c0-3.9-2.2-5.8-6.5-5.8c-1.3,0-2.4,0.2-3.3,0.7c-0.9,0.5-1.6,1-2,1.6c-0.4,0.6-0.8,1.5-1,2.7s-0.4,2.2-0.4,3
				c0,0.8-0.1,1.9-0.1,3.3s0,2.3,0,2.8c0,0.5,0.1,1.2,0.2,2.3c0.1,1.1,0.2,1.8,0.4,2.3c0.2,0.5,0.5,1,0.8,1.8
				c0.4,0.7,0.8,1.2,1.4,1.5c1.4,0.8,3,1.3,4.8,1.3c3,0,5.1-1.2,6.3-3.6V497H362v-5.7h10.6v10.5c-1.1,2.4-2.7,4.2-5,5.4
				c-2.3,1.2-4.9,1.8-7.8,1.8c-5.2,0-8.9-1.4-11.3-4.1C346.1,502.1,345,497.9,345,492.3z"/>
		</g>
	</g>
</g>
<polygon class="st6" points="45,457.8 456.5,457.8 456.5,459.3 45,459.3 "/>
<g>
</g>
<g>
</g>
<g>
</g>
<g>
</g>
<g>
</g>
<g>
</g>
<g>
</g>
<g>
</g>
<g>
</g>
<g>
</g>
<g>
</g>
</svg>
